<?xml version="1.0" encoding="UTF-8" standalone="no"?>
<!DOCTYPE svg PUBLIC "-//W3C//DTD SVG 1.1//EN" "http://www.w3.org/Graphics/SVG/1.1/DTD/svg11.dtd">
<svg version="1.1" xmlns="http://www.w3.org/2000/svg" xmlns:xlink="http://www.w3.org/1999/xlink" preserveAspectRatio="xMidYMid meet" viewBox="0 0 1200 800" width="1200" height="800"><defs><path d="M521.08 379.3C521.08 608.37 546.87 794.34 578.63 794.34C610.4 794.34 636.19 608.37 636.19 379.3C636.19 150.24 610.4 -35.74 578.63 -35.74C546.87 -35.74 521.08 150.24 521.08 379.3Z" id="ddeyg0ZV9"></path><path d="M585.9 413.37C585.9 418.83 581.54 423.26 576.16 423.26C570.79 423.26 566.42 418.83 566.42 413.37C566.42 407.92 570.79 403.49 576.16 403.49C581.54 403.49 585.9 407.92 585.9 413.37Z" id="c19gGxKmVY"></path><path d="M585.9 779.36C585.9 784.82 581.54 789.24 576.16 789.24C570.79 789.24 566.42 784.82 566.42 779.36C566.42 773.91 570.79 769.48 576.16 769.48C581.54 769.48 585.9 773.91 585.9 779.36Z" id="c2iSlz3eqO"></path><path d="M726.89 98.86C731.23 100.93 701.08 173.07 659.6 259.85C618.12 346.63 580.92 415.4 576.58 413.33C572.24 411.25 602.39 339.11 643.87 252.33C685.34 165.55 722.55 96.78 726.89 98.86Z" id="lyBFmHjic"></path><path d="M729.36 464.84C733.7 466.92 703.55 539.06 662.07 625.84C620.59 712.62 583.39 781.39 579.05 779.31C574.71 777.24 604.86 705.1 646.34 618.32C687.82 531.54 725.02 462.77 729.36 464.84Z" id="bifU8bjY4"></path></defs><g><g><g><use xlink:href="#ddeyg0ZV9" opacity="1" fill="#10fa3c" fill-opacity="1"></use></g><g><use xlink:href="#c19gGxKmVY" opacity="1" fill="#52a0e1" fill-opacity="1"></use></g><g><use xlink:href="#c2iSlz3eqO" opacity="1" fill="#52a0e1" fill-opacity="1"></use></g><g><use xlink:href="#lyBFmHjic" opacity="1" fill="#9bf4e8" fill-opacity="1"></use></g><g><use xlink:href="#bifU8bjY4" opacity="1" fill="#9bf4e8" fill-opacity="1"></use></g></g></g></svg>